<svg xmlns="http://www.w3.org/2000/svg" xmlns:xlink="http://www.w3.org/1999/xlink" width="500" zoomAndPan="magnify" viewBox="0 0 375 374.999991" height="500" preserveAspectRatio="xMidYMid meet" version="1.0"><metadata/><defs><clipPath id="4926c00f68"><path d="M 131 284 L 193 284 L 193 337.5 L 131 337.5 Z M 131 284 " clip-rule="nonzero"/></clipPath><clipPath id="d2374a1f33"><path d="M 46.3125 37.5 L 329 37.5 L 329 282 L 46.3125 282 Z M 46.3125 37.5 " clip-rule="nonzero"/></clipPath></defs><path fill="#000000" d="M 171.210938 196.472656 C 210.570312 168.722656 253.695312 163.042969 299.730469 178.359375 C 299.445312 177.695312 299.425781 177.464844 299.292969 177.355469 C 298.820312 176.945312 298.320312 176.578125 297.828125 176.203125 C 280.675781 163.175781 261.472656 155.226562 240.082031 152.363281 C 217.851562 149.382812 196.507812 152.511719 176.058594 161.363281 C 155.359375 170.324219 138.488281 184.191406 125.375 202.589844 C 113.117188 219.792969 106.023438 238.953125 103.617188 259.878906 C 101.78125 275.839844 103.625 291.472656 108.007812 306.871094 C 108.671875 309.230469 109.894531 310.867188 112.265625 311.878906 C 113.664062 264.003906 131.632812 224.382812 171.210938 196.472656 " fill-opacity="1" fill-rule="nonzero"/><path fill="#000000" d="M 305.902344 201.195312 C 301.617188 199.414062 297.425781 197.375 293.074219 195.808594 C 280.433594 191.25 267.394531 188.796875 253.929688 188.664062 C 270.363281 242.105469 260.453125 289.738281 223.417969 331.765625 C 224.660156 332.132812 225.699219 331.6875 226.796875 331.316406 C 247.828125 324.035156 265.558594 311.871094 279.785156 294.8125 C 301.746094 268.492188 310.96875 238.132812 307.828125 203.996094 C 307.695312 202.5625 307.203125 201.734375 305.902344 201.195312 " fill-opacity="1" fill-rule="nonzero"/><path fill="#000000" d="M 233.953125 190.253906 C 220.609375 192.230469 207.941406 196.355469 195.835938 202.679688 C 217.433594 241.050781 220.609375 280.910156 205.417969 322.9375 C 242.996094 287.671875 252.328125 232.683594 233.953125 190.253906 " fill-opacity="1" fill-rule="nonzero"/><path fill="#000000" d="M 139.320312 266.058594 C 156.835938 276.230469 175.425781 281.480469 195.84375 281.625 C 198.09375 256.871094 192.089844 234.3125 180.234375 212.664062 C 161.394531 226.78125 147.691406 244.269531 139.320312 266.058594 " fill-opacity="1" fill-rule="nonzero"/><g clip-path="url(#4926c00f68)"><path fill="#000000" d="M 131.695312 323 C 131.804688 324.144531 132.136719 324.921875 133.210938 325.441406 C 146.539062 331.871094 160.527344 335.953125 175.261719 337.453125 C 176.648438 337.597656 177.507812 337.277344 178.25 335.972656 C 181.273438 330.675781 184.179688 325.324219 186.507812 319.6875 C 189.066406 313.507812 191.210938 307.191406 192.699219 300.339844 C 171.730469 299.742188 152.253906 294.265625 133.871094 284.433594 C 131.132812 297.398438 130.445312 310.144531 131.695312 323 " fill-opacity="1" fill-rule="nonzero"/></g><path fill="#000000" d="M 285.855469 146.699219 C 286.097656 146.394531 285.757812 146.285156 285.492188 146.234375 C 285.410156 146.3125 285.335938 146.386719 285.257812 146.464844 C 285.375 146.746094 285.640625 146.960938 285.855469 146.699219 " fill-opacity="1" fill-rule="nonzero"/><g clip-path="url(#d2374a1f33)"><path fill="#000000" d="M 299.222656 37.515625 C 283.101562 37.515625 270.039062 50.578125 270.039062 66.699219 C 270.039062 72.398438 271.695312 77.699219 274.523438 82.191406 C 274.398438 82.433594 274.253906 82.683594 274.046875 82.945312 C 266.132812 92.933594 258.296875 102.972656 250.308594 113.164062 C 208.175781 88.328125 165.988281 88.375 123.671875 113.070312 C 115.773438 102.972656 107.9375 92.917969 100.039062 82.917969 C 103.144531 78.28125 104.960938 72.699219 104.960938 66.699219 C 104.960938 50.578125 91.898438 37.515625 75.785156 37.515625 C 59.660156 37.515625 46.597656 50.578125 46.597656 66.699219 C 46.597656 82.816406 59.660156 95.878906 75.785156 95.878906 C 79.027344 95.878906 82.140625 95.324219 85.0625 94.347656 C 85.207031 94.5 85.351562 94.628906 85.5 94.824219 C 87.800781 97.898438 90.207031 100.878906 92.570312 103.902344 C 97.847656 110.640625 103.125 117.382812 108.382812 124.109375 C 51.179688 174.4375 60.089844 247.28125 85.035156 281.285156 C 83.488281 269.128906 84.652344 257.363281 87.011719 245.761719 C 93.917969 211.769531 110.851562 183.660156 138.324219 162.496094 C 174.039062 134.996094 214.195312 126.671875 258.160156 136.894531 C 267.546875 139.085938 276.410156 142.753906 285.257812 146.464844 C 285.335938 146.386719 285.410156 146.3125 285.492188 146.234375 C 280.210938 137.699219 272.894531 130.988281 265.585938 124.21875 C 273.003906 114.753906 280.355469 105.386719 287.699219 96.011719 C 287.957031 95.683594 288.238281 95.378906 288.449219 95.027344 C 288.683594 94.625 288.933594 94.320312 289.203125 94.074219 C 292.332031 95.21875 295.695312 95.878906 299.222656 95.878906 C 315.339844 95.878906 328.402344 82.816406 328.402344 66.699219 C 328.402344 50.578125 315.339844 37.515625 299.222656 37.515625 " fill-opacity="1" fill-rule="nonzero"/></g></svg>